<svg xmlns="http://www.w3.org/2000/svg" viewBox="0 0 201.55 409.68">
  <defs>
    <style>
      .cls-1 {
        fill: #2d2d2d;
      }

      .cls-2 {
        fill: #c4c4c4;
      }

      .cls-3 {
        fill: #e0e0e0;
      }

      .cls-4 {
        fill: #bbe9f9;
        stroke: #515151;
        stroke-miterlimit: 10;
        stroke-width: 5px;
      }

      .cls-5 {
        fill: #ff6529;
      }

      .cls-6 {
        fill: #ffff50;
      }
    </style>
  </defs>
  <title>Layer 1</title>
  <g id="Layer_2" data-name="Layer 2">
    <g id="Layer_1-2" data-name="Layer 1">
      <path class="cls-1" d="M175.26.19a160.07,160.07,0,0,0-17,7.75c-41.83,23.18-64.35,66.14-76.08,97.69-12.59,34.53-15.31,62.75-15.42,64.07L62,212.39,7.68,244.6a4.49,4.49,0,0,0-1.84,2.7L0,291a3.57,3.57,0,0,0,1.28,3.05,3.19,3.19,0,0,0,3.29.67l41-8.93s7.22,19.8,7.39,20.11c23.66,33.64,58.92,21.2,59.24,21l.32-.18.64-.35h0l16-12.61,30.32,29.11a3.87,3.87,0,0,0,3.16,1.17l1-.53a5.24,5.24,0,0,0,1.56-1.7l18.23-40.16a4.56,4.56,0,0,0-.14-3.27l-28.57-53,18-35.41c60.17-110.58,8-206.91,7.5-207.86C178.7.37,177-.38,175.26.19Z"/>
      <path class="cls-2" d="M8.32,286.41l5-37,48.15-28.36-7.3,66.66-2.76-7.23a3.36,3.36,0,0,0-4.18-2.28Z"/>
      <path class="cls-2" d="M175.75,300.05l-15.07,33.81-28.62-27.54a3.37,3.37,0,0,0-4.75-.29l-5.54,4.32,28.78-57.28Z"/>
      <path class="cls-3" d="M165.88,206.17,108.46,320.23c-5.81,1.56-30.75,7-48.63-17.7L74.46,170c.1-1.31,11.35-113.57,87.66-155.87,4.15-2.31,8.48-4.29,12.81-6.27C182.5,24.56,218.31,109.48,165.88,206.17Z"/>
      <circle class="cls-4" cx="144.95" cy="105.95" r="24.65"/>
      <g>
        <path class="cls-5" d="M132.76,157.62c.53.15,1.39.43,1.9.62a17.17,17.17,0,0,1,3.55,1.78,9.53,9.53,0,0,1,2.65,3,8.56,8.56,0,0,1,1,3.63,12.23,12.23,0,0,1-.45,3.88,12.87,12.87,0,0,1-1.25,2.94,10.33,10.33,0,0,1-2,2.5,9,9,0,0,1-2.77,1.73,10.88,10.88,0,0,1-2.62.56.82.82,0,0,0-.75,1l3.38,13.19c.14.54-.18.85-.71.7L130.3,192a2,2,0,0,1-1.22-1.24L125.74,178a2,2,0,0,0-1.22-1.24L118,175a6.29,6.29,0,0,0-1.41-.26c-.25,0-.72,1-.87,1.53L112.92,186a1,1,0,0,1-1.24.69l-3.75-1.07a1,1,0,0,1-.69-1.23l3.09-10.92a17.48,17.48,0,0,1,.67-1.88s.9-2.11,1.93-2.69a6.81,6.81,0,0,1,3.24-.24,18.45,18.45,0,0,1,2,.42l10.72,3c.53.15,1.41.36,2,.47a4.14,4.14,0,0,0,1.19,0,3.89,3.89,0,0,0,1.68-.62,4.26,4.26,0,0,0,1.21-1.22,3.77,3.77,0,0,0,.39-.66,10,10,0,0,0,.46-1.94,5.05,5.05,0,0,0-.34-2.32,5.14,5.14,0,0,0-2.17-1.83,15.52,15.52,0,0,0-1.87-.69l-15.88-4.5a1,1,0,0,1-.69-1.23l1.07-3.75a1,1,0,0,1,1.23-.69Z"/>
        <path class="cls-5" d="M129,203.33a1,1,0,0,1,.69,1.23l-1.06,3.76a1,1,0,0,1-1.24.69l-10.63-3a16.41,16.41,0,0,0-2-.39s-4.67-.59-6.57.66-3.37,3.74-4.43,7.5-1.11,6.6-.17,8.65,5.27,4,5.27,4a17.37,17.37,0,0,0,1.87.68l10.63,3a1,1,0,0,1,.69,1.24l-1.06,3.75a1,1,0,0,1-1.24.69l-10.63-3a15.52,15.52,0,0,1-1.87-.69s-7.09-3.3-8.85-6.69-1.86-7.81-.32-13.26,4-9.21,7.24-11.18,11.05-1,11.05-1a14.63,14.63,0,0,1,1.95.39Z"/>
        <path class="cls-5" d="M96.4,240.86a1,1,0,0,1,.69,1.23l-3.2,11.31a1,1,0,0,0,.69,1.24l14.67,4.15a1,1,0,0,0,1.23-.69l3.21-11.3a1,1,0,0,1,1.23-.69l3.8,1.07a1,1,0,0,1,.69,1.24L110.76,279a1,1,0,0,1-1.24.69l-3.8-1.08a1,1,0,0,1-.69-1.24l3.3-11.64a1,1,0,0,0-.69-1.23L93,260.31a1,1,0,0,0-1.24.69l-3.3,11.64a1,1,0,0,1-1.23.69l-3.75-1.06a1,1,0,0,1-.69-1.23l8.65-30.55a1,1,0,0,1,1.24-.69Z"/>
      </g>
      <path class="cls-6" d="M84.81,346.07a4.16,4.16,0,0,0-4.64,6.9c3.61,2.44,11.51,9,7.44,18.72a18.61,18.61,0,0,1-10.13,9.66c-9.41,3.86-21.2,10-26.81,18.16-6.2-11.55-5.25-22.83,2.88-34.32a4.15,4.15,0,0,0-3-6.52A28.23,28.23,0,0,0,39.87,360c1.11-5.42,3.69-12.35,9-15.63,4-2.41,9.41-2.39,16,0a4.16,4.16,0,0,0,2.86-7.77c-9.08-3.33-16.86-3.11-23.1.64C35.1,343,32,355.35,31,362.23a6.37,6.37,0,0,0,5.39,7.21,6.3,6.3,0,0,0,3.79-.63,18.85,18.85,0,0,1,2.07-.87c-4.8,10.16-6.58,23.63,3,38.75a6.33,6.33,0,0,0,7.14,2.74l.19-.05A6.33,6.33,0,0,0,56.43,406c2.62-5.53,11.44-11.71,24.22-17a26.73,26.73,0,0,0,14.64-14.12A20.63,20.63,0,0,0,94,355.43,31.44,31.44,0,0,0,84.81,346.07Z"/>
    </g>
  </g>
</svg>
